<?xml version="1.0" encoding="UTF-8"?>
<svg id="Layer_1" data-name="Layer 1" xmlns="http://www.w3.org/2000/svg" version="1.1" viewBox="0 0 208.6 250">
  <defs>
    <style>
      .cls-1, .cls-2 {
        fill: #57648c;
        stroke-width: 0px;
      }

      .cls-2 {
        fill-rule: evenodd;
      }
    </style>
  </defs>
  <path class="cls-2" d="M105.4,29.5c2.5,3.3,5.3,6.2,8.3,8.9.6-.5.8-.9,1.8-.8,2.2.4.6,4.2-1.4,2.5-3.1,2.6-6.1,5.2-9,7.9,2.1,1.9,4.3,3.6,6.4,5.5.6-.4,2.1-.4,2.6,0,5-4.5,10-9.2,15.1-13.8.7-.7,1.7-1.3,2.1-1.9,1.1-1.8.9-4.8.3-6.5-.8-2.2-3.1-4.5-5.6-4.5-4-.1-7.4,4.1-4.2,7.1-.4-1.2.2-3,1.5-3.3,2.9-.6,3.9,2.8,2.3,4.2-1.1,1.1-4.1,1.2-5.4,0-.6-.5-1.6-2.2-1.7-3.4-.4-4,3.8-6.8,6.8-7.1,3.8-.4,6.6,1.8,7.7,4.2,1.5,3.2,1.3,7.6-.6,10-.6.8-1.5,1.4-2.3,2.1-4.5,4.1-9.2,8.4-13.8,12.5-.7.6-1.5,1.1-1.8,2.5,2.3,2.2,4.9,4.2,7.3,6.4.7-.7,2.5-.6,3,.2,3.4-2.8,7.1-6,10.7-9,1.2-1,2.4-2.2,3.6-2.9,5.8-3.5,15.2-1.7,18.3,3.3,9.3-5.3,26.7-6.9,36.9-1.1,8.9,5.1,14.4,12.7,14.3,26.4,0,6.3-2.5,11.1-5.3,15,2.3,2.6,3.8,5.6,3.5,10.6-.6,8.3-7.2,12.6-14,14.9-8.4,2.7-19.1.9-27.3-.9-4.3-1-8.4-2.2-12-3.6-7.5-2.9-14.1-6.9-20.4-10.7-6.5-3.9-11.7-9.5-17.4-13.7-1.6-.2-2.3,1.1-3.4,2-1.5,1.4-2.8,2.5-4.3,4-.6.6-1.9,1.4-1.9,2.2,0,1,1.9,2.2,2.5,2.8,2.8,2.6,5.5,5,8.2,7.4,3.2-1.9,4,4.2.6,3.6-.7-.1-1.3-.5-1.6-1.5-4,1.6-7.3,4-10.2,6.7,3.5,3.7,7.2,9.3,6.8,16.9-.1,2.6-.9,5-1.8,7.2-1.2,2.6-3.8,7.4-8.1,5.6-.5-.2-1.3-.7-1.6-1.1-2.9-2.6-4.2-6.9-4.2-12,0-7.4,3.5-13.2,7.1-16.6-2.9-3-6.2-5.4-10.2-7.2-.3,2.6-4.5,2.1-4.2-.4.1-1.2,2.1-2.5,3.3-1.4,3.4-3,6.6-6.1,9.9-9.2-.1-.5-.2-1.4,0-1.7-2.5-2.6-5.2-4.9-7.9-7.2-.4,0-.8.3-1.2,0-6.9,5.2-13,12.2-21.3,16.6-4.1,2.2-8.3,4.3-12.8,6.2-4.5,1.9-9,3.8-14.1,4.8-16.1,3.3-37.8,3.8-42.8-9.9-1.9-5.3-1-10.9,2.5-14.1-3.6-5.1-5.5-13.1-4.4-21.1,1.3-9.3,6.5-15.5,13.2-19.5,4-2.3,9.3-4,15.4-4.1,8.5-.2,15.6,1.3,21.6,4.3,1.4-1.2,2.5-2.5,4.2-3.3,5.4-2.7,13.2-.8,17.4,2,2,1.4,3.8,3.3,5.7,4.8,1.9,1.7,3.9,3.1,5.7,4.7.7-.4,1.9-.5,2.5,0,2.5-2,4.9-4.1,7.3-6.3-.2-.6-.4-1.1-.3-1.9-4.3-3.7-7.7-7-11.9-10.6-2.8-2.4-6.6-5.2-6.7-10.3,0-2.6,1.1-5,2.5-6.6,1.2-1.2,3.6-2.8,6-2.8,3.6,0,7.1,2.8,7.5,6.1.3,2.8-1,5.3-2.8,6-2.5.9-6.9-.9-5.4-4.1.3-.7,1.4-1.4,2.6-1.4,1.8.1,2.4,2.4,1.5,3.9,2.2-.6,2.4-3.3,1.5-5.1-.8-1.7-2.9-3.4-5.4-3.2-3.7.3-6.5,3.9-6.5,8,0,2.9,1.5,4.6,3.1,6.2,4.4,4.4,10.4,8.7,14.7,12.8.7-.4,2.1-.5,2.7,0,2.3-1.6,4.1-3.6,6.4-5.3-2.8-2.8-5.9-5.1-8.8-7.8-1.8,1.5-3.8-1.5-2-2.3.5-.2,1.6-.2,1.9.3,3.1-3,6.8-5.4,9.4-9-2.5-3.7-6.5-8.6-6.9-15.2-.3-5.2,1.5-9.5,4.1-12.1,1-.9,2.8-2.4,4.9-1.8,2.2.6,3.9,2.9,4.8,4.7,1.2,2.2,1.5,5.1,1.3,8.2-.4,6.9-3.2,12.4-6.2,16.4ZM108.5,15.9c.3-6.1-.8-11.3-3.9-14.3h-.2c-8.2,4.4-4.4,20.4,0,26.1,1.7-3,3.8-7,4.1-11.8ZM104.3,30.4c-2.7,3.5-6.6,5.8-9.5,9.2,3.1,2.4,6.1,5.1,9.2,7.5,2.9-2.6,6.1-5,9-7.7-3.3-2.6-5.9-5.8-8.7-9ZM110.8,54.6c-2.4-1.8-4.5-3.9-6.9-5.7-1.4,1.3-3.5,3-5.1,4.4-1,.9-1.7,1.4-1.6,2.8,2,1.9,4,3.7,6.2,5.4.5-.2,1.4-.3,2,0,1.9-1.8,3.9-3.3,5.7-5.2-.3-.4-.4-1-.3-1.6ZM147.7,49.9c-7.1-.7-10.1,3.4-14.1,6.9-1.4,1.2-2.7,2.3-4.1,3.6-1.3,1.1-3.6,2.5-4.2,3.7-.2.4,0,.8-.3,1,2.3,1.8,4.4,3.9,6.8,5.6.8-1.1,2.2.2,2.6.2.3,0,1.6-1.4,1.9-1.7,2-1.8,4-3.8,5.8-5.3.6-2.7,2.5-5,5.9-4.2,2.6-1.7,5.2-3.4,8.1-4.8-1.7-2.4-4.8-4.4-8.4-4.7ZM138.1,69c-.7.6-2.3,1.9-2.8,2.7-.2.3-.5,1-.4,1.4.1.7,1.3,1.4,2,2,5.3,4.6,10.4,8.7,16.9,11.9,3.7,1.9,8,3.3,12.6,3.8,5,.5,10.2,0,14.4-1.5,3.2-1.2,5.7-3.6,7.6-6.3,1.9-2.6,3.8-6.1,3.6-10.3-.2-4.6-3.5-9.2-7-11.5-4.3-2.7-11.2-3.3-15.4-.7-2.3,1.4-4.1,3.6-5.1,6.8-1.1,3.4-.3,8,2.4,9-.9-.9-1.6-1.9-1.4-3.6.6-4.8,8.4-3.7,7.3,1.6-.3,1.4-2.2,3.3-3.8,3.6-2.9.5-4.7-1.7-5.5-3.3-3.1-5.8,1.1-12.6,5.4-15.2,2-1.3,4.8-2,7.5-2,5.5,0,9.7,2.1,12.8,5.2,2.9,2.9,5.4,7,4.9,13.2-.3,3.4-1.9,6.3-3.6,8.7-5.4,7.4-14.2,11-26.8,8.9-6.4-1-12.6-4.4-17-7.6-3.3-2.4-7-5.5-10.1-8.4-.8-.8-2.4-2.6-3.3-2.7-1.3-.1-2,.7-2.8,1.4-.6.5-1.1,1.1-1.6,1.6-.8.8-3.1,2.1-3.1,3.5,0,.7,1.5,1.8,2.3,2.5,4.7,4.1,9,8,13.6,11.7,8.9,7.1,24.1,11.2,40.1,9.1-2.7-11.7,9.6-16.6,18.3-12,3.3-5.1,6.1-12.9,4.4-20.7-.8-3.8-2.9-7.5-5.1-10.5-3.9-5.5-8.5-8.3-15.9-10-9.3-2.2-19.1.8-25.5,3.9,1.7,2.6,2.7,5.9,1.8,9.2-.7,2.6-3,5.2-5.2,6.4-5,2.5-12,.5-12.8-4.7-1.3.8-2.6,2-4,3.3ZM82.6,63.4c-3-2.5-6.1-5.2-9.4-7.8-3.3-2.7-7.1-4.8-12.4-4.8-3.9,0-7.1,1.4-8.9,4.1,2,1,4.6,2.2,6.8,3.4.8.4,1.5,1.1,2.1,1.3,1.1.2,2-.2,2.9.2,1.4.7,1.9,2.1,2.3,3.8,2.8,2.2,5.3,4.9,8.1,7.1.7-.5,2-.3,2.6,0,2-1.9,4.3-3.5,6.2-5.5-.2-.5-.3-1-.3-1.7ZM29.4,51.4c-12.7.7-20.4,7.6-24.1,17.4-1.3,3.4-2.3,7.5-1.9,11.8.4,4.8,2.1,8.3,4.2,12,1.1-.4,1.8-.8,2.7-1.2,9.2-3.1,17.4,3,15.8,13.3,6.4,1,12.8.4,18.2-.9,5.7-1.3,10.7-2.8,15.3-4.9,9.1-4.3,16.3-10.9,23.1-17.2-.4-.4-.3-1.2-.1-1.7-1.1-.9-1.9-1.8-3.1-2.9-.7-.6-2.5-2.6-3.4-2.7-1.4-.2-2.3,1-3,1.6-.9.8-1.7,1.6-2.4,2.2-5,4.5-10,8.9-16.3,11.6-4.1,1.7-8.8,3.6-14.7,3.9-5.9.3-11.2-.4-15.5-2.9-3-1.7-5.5-4.7-7.1-7.9-1.7-3.4-2.7-8.1-1.9-12.6.7-4.1,3.1-7.2,5.8-9.4,2.7-2.2,6.3-3.9,11.3-3.9,2.2,0,4.1.8,5.7,1.5,2.8,1.4,5,3.9,6.3,6.7.5,1.1,1.2,2.7,1.4,4.3.4,3.9-1.5,6.5-4.1,7.4-2.9,1.1-5.8-.9-5.5-4,.5-4.5,7.9-3.7,7.5.6.6-1,.9-2,.8-3.6-.3-3.4-2.6-7-4.3-8.6-2-1.8-5.7-3.7-9.8-3-6.4,1.1-12.3,6.5-12.8,13.2-.3,4.3,1,8.2,2.5,10.8,2.3,3.9,6.8,6.8,12,8,5.7,1.3,12.6.6,17.6-1.2,5.1-1.8,9.7-3.5,13.5-6.6,2.8-2.2,5.3-4.5,8.1-7,.8-.7,2.5-1.8,2.6-2.4.4-1.7-.7-2.4-1.6-3.3-2-1.9-3.7-3.5-5.8-4.9-.7,3.9-5.7,6.8-10.8,5.5-5.7-1.5-8.5-9.4-5.2-15.3-5.8-2.4-12.4-4.4-20.5-4ZM144.8,67.6c1.4,1.6,4.1,2.7,6.6,2.4,5.7-.6,9.9-8.8,5.8-14.3,0,0-.1,0-.2,0-2.7,1.5-5.4,3-7.8,4.7,2.7,2.5-.9,7.5-4.1,5.1-.5-.4-.7-1.2-1.3-1.5-.9,1.2.3,2.9,1,3.7ZM51.1,56c-.6,1.3-1.2,2.4-1.4,3.9-.6,6.2,5.3,11.3,11.7,8.9,1.5-.6,2.6-1.7,3.1-3.7-1.1.5-2.2,1.2-3.6,1-2.3-.4-3.2-3.9-1.7-5.6-2.7-1.5-5.1-3.3-8.1-4.4ZM113.6,57c-.4,0-.8.1-1.4,0-2,1.8-4,3.4-5.9,5.3.5.4.5,1.5.2,2,2.2,1.9,4.3,3.9,6.6,5.7.9-.4,1.9-.4,2.7,0,1.9-1.6,3.8-3.1,5.6-4.8-.4-.4-.5-1.3-.3-1.9-2.6-2.1-5-4.2-7.5-6.4ZM96.1,57.1c0,.1-.2,0-.2.2-.6,0-1.1,0-1.5,0-2.5,2.2-5.1,4.4-7.6,6.6.2.4,0,.9,0,1.4,2.1,1.6,4,3.4,6.2,5,.8-.5,2-.4,2.7,0,2.2-2.1,4.6-3.9,6.7-6.1-.2-.5-.1-1.3,0-1.7-2.1-1.7-4-3.6-6.2-5.3ZM103,65.3c-2.3,2.1-4.5,4.1-6.9,6.1,0,.6,0,1-.2,1.4,2.5,2,4.9,4.1,7.4,6.1.4-.5,1.6-.3,2.1,0,2.3-1.9,4.5-3.9,6.9-5.8-.2-.4-.3-1.3-.1-1.8-2.1-2-4.4-4-6.7-5.9-.7.6-1.9.3-2.6,0ZM124,65.9c-.1,0-.2.1-.3.2h-1.2c-1.4,1.2-3.2,2.7-4.7,4-1,.8-1.7,1.3-1.5,2.8,2.2,2.1,4.5,4.1,6.9,6.1.4-.5,1.5-.3,2,0,2-1.8,4-3.5,5.9-5.4-.5-.3-.4-1.2-.4-1.9-2.2-1.9-4.4-3.9-6.8-5.7ZM85.7,66c-.4.3-1.2.2-1.7,0-2.2,1.9-4.3,3.8-6.6,5.6,0,.7,0,1.2-.3,1.6,1,.8,1.9,1.8,3.1,2.8.7.6,2.3,2.5,3.2,2.7.6.2,1.4-.3,1.9.3,2.4-2,4.7-4,6.9-6.2-.3-.3-.4-1.3-.2-1.7-2.1-1.7-4.1-3.6-6.4-5.2ZM102.5,79.8c-2.5-2-4.9-4.1-7.4-6.1-.2.2-.5.2-.8.3-.4,0-.7,0-1-.2-1.7,1.6-3.7,3.3-5.5,4.9-.8.7-2,1.4-1.8,2.6,2.3,2,4.4,4.2,6.9,6.1.7-.4,1.8-.1,2.2.3,2.5-2.2,5-4.4,7.6-6.5-.2-.4-.2-.9-.2-1.4ZM113.3,74c-1.4,1.2-3.8,3.1-5.4,4.5-1,.9-1.8,1.3-1.8,2.7,2.6,2.1,5.2,4.2,7.7,6.4.5-.3,1.7-.4,2.2,0,2.2-2.1,4.5-4,6.6-6.1-.2-.3-.3-.8-.3-1.4-2.4-1.9-4.5-4.1-6.9-6-.5.3-1.5.2-2,0ZM111.3,91.8c.9-.8,2.3-1.6,1.8-3.1-1.8-1.6-4-3.3-6-4.9-1.1-.9-1.7-1.9-3.5-1.6-1.5,1.2-2.6,2.3-4.4,3.8-.8.6-3.9,2.6-3.8,3.9,0,.4,1.3,1.5,1.8,1.9,1.5,1.3,2.6,2.3,4.1,3.7.6.5,1.6,1.6,2.1,1.7.5.1,1.4-.3,1.7,0,1.9-1.6,4.1-3.6,6.1-5.4ZM161.7,104.9c-5.5-1.1-10.3-2.6-14.8-5-2.1-1.1-4-2.5-6-3.9-2-1.3-3.7-3-5.4-4.5-2.5-2.2-5.3-4.6-7.9-6.8-1.2-1-2.6-2.9-4.1-2.1-1,1-2.3,2.1-3.7,3.3-.7.7-3.3,2.4-3.2,3.8,0,.9,2.8,2.6,4,3.6,4.4,3.7,8.4,7.4,13.1,10.2,6.6,3.9,12.6,7.8,20.4,10.7,3.7,1.4,7.7,2.7,12,3.6,8.4,1.8,18.9,3.5,27,.4,3.8-1.4,7.4-3.2,9.6-6.1,3-4,4.4-13-.4-16.6-2.3,2.3-4.8,4.4-7.8,6,1.5,1.2,2.8,2.3,2.8,4.5,0,3.4-3.4,5.7-7.7,5.3-3.7-.4-5.5-3.1-7.2-5.7-6.9,1.3-14.6.6-20.6-.6ZM83.5,82.6c-7,6.5-14.4,13.1-23.6,17.6-4.6,2.2-10,3.7-15.7,4.9-5.6,1.2-12,2.1-18.6,1.1-1.5,2.5-4.2,4.9-8.3,4.7-3.2-.1-6.3-2.3-6.1-5.4,0-1.6,1.2-2.4,2.3-3.3-3-1.7-5.4-4.2-7.8-6.5-1.6,1.8-3,3.8-3.2,6.8-.4,5.1,2.6,9.5,5.2,11.7,9.5,7.7,30.2,5.3,42.3,1.7,4.2-1.2,8.2-3,12.1-4.8,3.9-1.8,7.6-3.9,11.1-5.9,7.2-4.2,12.9-10.2,19-15-.2-.6-.5-1.2-.2-1.8-2.3-1.9-4.4-4.1-6.8-6-.4.3-1.1.4-1.6.2ZM14.5,91.7c-2.4.1-4.4,1-6.2,1.9,4,5,9.4,8.7,16.4,10.6.9-7.3-3.3-12.8-10.2-12.5ZM193.1,91.8c-6.6,0-11.3,4.8-9.8,12.2,7.4-1.6,12.3-5.6,16.2-10.6-2-.8-3.8-1.5-6.4-1.5ZM105.1,100.7c-.3.3-1,.3-1.6.3-2.7,2.5-5.7,5.2-8.3,7.6-.4.4-1,.7-.9,1.1,3.9,2,7.2,4.6,10.3,7.3,3-3,6.8-5.2,10.9-7.1-3.6-2.9-6.7-6.3-10.4-9.2ZM183.9,105.2c1.3,2.5,3.5,5.4,7.3,4.3-1.9-.6-2.9-3.2-2-5.6-1.7.5-3.4,1-5.3,1.3ZM18,109.6c2.9-.3,4.9-1.5,6-3.7-1.4-.3-2.9-.6-4.1-1.1.2,2.1-.4,4-1.8,4.7ZM99.1,136.8c.2,2.2.7,3.8,1.6,5.9.7,1.6,1.4,3.6,3,3.7,2.4.2,3.6-3.1,4.2-4.9.7-2.2,1-5.6.9-8.3-.2-5.5-1.9-9.8-4.1-13.1,0,0,0-.1,0,0-2.8,3.7-6,9.4-5.5,16.8Z"/>
  <rect class="cls-1" x="103.8" y="162.1" width="1" height="87.9"/>
</svg>